<?xml version="1.0" encoding="utf-8"?>
<!-- Generator: Adobe Illustrator 27.1.1, SVG Export Plug-In . SVG Version: 6.00 Build 0)  -->
<svg version="1.1" id="Layer_1" xmlns="http://www.w3.org/2000/svg" xmlns:xlink="http://www.w3.org/1999/xlink" x="0px" y="0px"
	 viewBox="0 0 675.3 963.8" style="enable-background:new 0 0 675.3 963.8;" xml:space="preserve">
<style type="text/css">
	.st0{fill:#000000;}
</style>
<path class="st0" d="M510.8,0.5c-20.9,1.2-42,6.8-60.6,16.1c-9,4.5-17.9,9.9-24.5,14.9c-10.1,7.6-24.8,22.6-31.9,32.3
	c-1.9,2.7-4.4,6-5.6,7.5c-8.2,10.7-17,29.2-21.9,46c-1.4,4.5-2.8,9-3.3,10c-0.5,0.9-1.9,5.7-3.1,10.7c-1.1,4.9-3.4,13.2-5.1,18.3
	c-1.6,5.1-3,10.2-3,11.3c0,1-0.7,4.5-1.5,7.7c-4,15.7-6.5,27.4-6.5,30c0,1.5-0.4,3.2-0.9,3.8c-0.5,0.5-1.6,3.6-2.4,6.9
	c-0.9,3.3-2.3,8.5-3.1,11.5s-2.9,11.3-4.7,18.5c-4.9,19.9-4.1,18.8-14.5,21.4c-28.4,6.8-53.9,7.2-66.3,1
	c-11.1-5.6-16.6-16.1-15.9-30.4c0.8-14.8,8.1-25.2,22.7-32.2c7.1-3.5,7.7-3.6,15.7-3c7.1,0.5,9.7,1.2,16.6,4.6
	c4.6,2.3,10.2,5.5,12.5,7.3c2.4,1.7,4.5,2.9,4.9,2.6c1.2-1.3-2.7-11.6-6.4-17.2c-5.3-7.8-13.9-14.8-24.7-20.1
	c-12.7-6.2-19.9-7.9-31-7.1c-20.1,1.2-34.7,7.3-47.2,19.5c-8.7,8.4-13.1,14.5-16.5,23c-2,4.9-2.3,7.4-2.3,20.1
	c0,14.8,0.4,17.3,4.7,27c4.9,11,27.8,28.6,46.2,35.5c15.9,6,46.9,9.6,65.5,7.6c6-0.6,13-1.8,15.6-2.5c6-1.9,6.3-1.2,3.5,10.1
	c-5.8,23.2-16.5,48.7-32.8,77.9c-2.7,4.9-6.5,11.8-8.4,15.4c-11.8,21.8-35.3,60.7-45.9,76.1l-1.6,2.3l-4.9-2.1
	c-11.9-5.1-31.4-8.2-57.9-9c-32.2-1-53,4-83,20c-10.5,5.6-22.8,15.3-34,26.9c-19.5,20.1-27.6,31-36.5,48.3
	C-1,592.4-2.7,603,3.7,615.9c4.8,9.7,12.4,17.5,21.8,22.2l7.8,3.9l12.5-0.1c7.3-0.1,16.2-0.8,21.5-1.8c9.3-1.8,35.2-9.1,44-12.5
	c18.7-7.1,60.7-27.9,76-37.6c2.8-1.7,7-4.4,9.5-6c7.2-4.5,18.9-13.5,25.2-19.3l5.7-5.3l5.8,5.3c29.5,27,60,47.2,90.3,59.8
	c4.1,1.7,8.9,3.7,10.5,4.5c5.3,2.3,22.9,8.4,33.4,11.5c5.6,1.7,13.5,4.1,17.4,5.5c4,1.3,11.5,3.3,16.7,4.5c5.2,1.1,14.2,3.2,20,4.5
	s12.2,2.7,14.3,3c2.1,0.4,3.7,1.3,3.7,2.1c0,0.7-0.9,5.9-1.9,11.6c-1.1,5.7-2.7,17-3.6,25.1s-2.3,18.5-3.1,23s-3,18.8-4.9,31.7
	c-7.5,50.2-18.2,89.2-32.8,119.4c-15.3,31.4-25.5,42.5-39.3,42.6c-16.6,0.1-27.4-12.3-30.6-35.1c-2.1-14.7,1.2-39.8,7.9-60.4
	c1.5-4.8,8.5-19.6,15.7-33.5c1.9-3.6,3.3-6.6,3.1-6.8c-1.4-1.4-25.7,17-37.3,28.3c-10.6,10.1-18.1,20.8-24.6,34.6
	c-4.6,10-10.7,28.4-13.1,39.6c-3.3,15.3-1,29.9,7.2,46.2c13.3,26.6,38.5,39.7,71.3,37.1c17.1-1.4,31.3-9.4,44.5-25.2
	c18.1-21.5,26.8-33.9,33.3-47.8c6-12.7,17.6-42.1,21-53.5c7.2-23.7,17.2-64.4,22.6-92c2.5-12.7,5.4-27.3,6.5-32.5
	c1-5.2,2.7-13.8,3.6-19c2.1-11.7,4.4-24.8,5-27.6c0.4-1.7,1.7-2.2,9.7-3.3c16-2.2,53.2-12.6,68.3-18.9c21.3-9,53.9-26.1,64.7-34.1
	c4.3-3.1,9.7-6.7,12.1-8.1c4.6-2.7,20.9-14.8,26.7-19.9l3.5-3l-14-0.3c-40.8-0.9-62.9,2.8-91.2,15.3c-7.6,3.3-19.4,7.8-26.3,10.1
	c-6.9,2.2-18.5,6-25.8,8.5c-7.4,2.4-13.5,4.3-13.8,4.1c-0.7-0.7,5.5-20.7,8.7-28c13.2-30.3,29.1-55.4,61.5-96.8
	c6.6-8.5,14.5-18.7,17.5-22.6s9.7-12.4,15.1-19c5.3-6.5,11.1-14,13-16.5c1.8-2.6,8.5-11.8,14.7-20.5c23.9-33.1,37.1-53.2,37.1-56.7
	c0-0.5-1.5-0.6-3.7-0.2c-2.1,0.4-6.3,1.1-9.3,1.6c-31.6,4.9-46,7.8-80,16.1c-11.3,2.7-25.4,6-31.5,7.3c-6,1.3-15.7,3.5-21.5,4.9
	c-12.1,2.9-23.1,5.1-34.5,7.1c-4.4,0.8-11.4,2.4-15.5,3.5s-16.7,4.3-28,7.1c-26.6,6.5-32.4,8.3-44.9,13.6
	c-13.4,5.7-19.4,9.6-26,16.9c-7.5,8.4-17.7,31-22.5,49.9c-1.6,6.2-3.6,21.1-3.6,25.5c0.1,1.6,1,1.3,2.8-1
	c5.8-7.5,17.9-20.8,25.1-27.8c13.9-13.4,25.1-20.1,40.2-24.3s74.7-19,84.4-21c5.5-1.1,13-2.7,16.6-3.4c11-2.2,42.9-10.4,45-11.6
	c1.1-0.6,2.7-0.9,3.6-0.7c1.2,0.2-0.9,3.3-7.8,11.2c-19.5,22.6-30.6,35.8-42.2,50.5c-2.3,3-6,7.5-8.3,10
	c-5.7,6.5-22.1,32.5-33.2,52.6c-8.5,15.3-18,40.3-22.3,58.7c-1.1,4.8-2.5,9.1-3,9.4c-0.6,0.3-4.1-0.1-8-1
	c-3.8-0.9-10.2-2.3-14.1-3.3c-21-4.8-44.9-14.4-74.8-29.9c-30.4-15.7-54.7-34.2-82.5-62.3l-5.9-6.1l3.4-4.7
	c1.8-2.7,6.8-9.7,10.9-15.7c4.2-6,10-14.3,12.9-18.5c17.3-24.8,27.3-41.1,35.9-58.4c5.2-10.4,10.1-20.5,10.8-22.6
	c0.7-2,4.2-9.7,7.8-17.1c7.4-15.4,24.3-57.2,29.6-73.4l3.6-10.9l5-1.7c12.5-4.2,42.9-15.9,53-20.4c2.8-1.2,6.6-2.8,8.5-3.6
	c21.2-8.1,64.4-28.5,74.1-35c27.6-18.7,48-37.9,68.1-64.5c18-23.7,29.8-58.3,29.8-87c0-12.4-2.3-25.1-5.8-32
	c-2.2-4.4-11.6-17.7-14.5-20.3c-5.5-5.2-17.6-11.3-30.7-15.6c-12.1-3.9-23-6-42-8.1C525.4-0.1,518.2,0.1,510.8,0.5L510.8,0.5z
	 M548.9,63c9.1,2.9,13.9,6.5,17.2,12.9c4.8,9.6,3.3,18.3-5.9,34.5c-7.6,13.2-16.3,24.5-29.9,38.5c-17.4,18.1-31.3,30.5-45.5,40.8
	c-24.6,17.8-33,22.8-77.9,46.5c-11,5.8-12.2,5.5-9.6-2.4c0.9-2.9,2.5-8.5,3.6-12.3c2.9-11.1,8.3-27.1,12.9-38
	c2.3-5.5,5.9-14.6,8-20.3c12-31.7,32.7-65.2,48.6-78.6c7.2-6.2,16.3-12.4,20.9-14.5c15.5-6.9,23.9-8.8,40.1-9
	C540.1,61.1,544,61.6,548.9,63L548.9,63z M165.7,515.8c9.5,2.6,10.8,3.2,16.4,8.3l6,5.6l-2,4.4c-2.9,6.4-16.7,19.1-29.8,27.5
	c-3.3,2.1-7.9,5.1-10.2,6.7c-15.3,10.4-49.6,23.4-64.6,24.5c-7.5,0.5-8.7,0.3-13.4-2c-4.1-2.1-5.6-3.6-7.7-7.9
	c-3.9-7.7-3.6-13.4,1-21c10.4-17.1,43.4-40,66-45.7C143.3,512.1,151.9,512,165.7,515.8L165.7,515.8z"/>
</svg>
